<?xml version="1.0" standalone="no"?>
<!DOCTYPE svg PUBLIC "-//W3C//DTD SVG 20010904//EN"
 "http://www.w3.org/TR/2001/REC-SVG-20010904/DTD/svg10.dtd">
<svg version="1.0" xmlns="http://www.w3.org/2000/svg"
 width="732.000000pt" height="732.000000pt" viewBox="0 0 732.000000 732.000000"
 preserveAspectRatio="xMidYMid meet">
<metadata>
Created by potrace 1.14, written by Peter Selinger 2001-2017
</metadata>
<g transform="translate(0.000000,732.000000) scale(0.100000,-0.100000)"
fill="#000000" stroke="none">
<path d="M3460 7140 c-854 -51 -1624 -387 -2239 -976 -466 -447 -799 -1022
-960 -1660 -125 -495 -136 -1039 -31 -1549 116 -561 373 -1089 754 -1545 173
-207 467 -472 685 -619 515 -346 1048 -539 1666 -602 141 -14 488 -14 630 1
348 35 686 118 1005 246 280 112 639 325 878 521 715 585 1164 1408 1268 2328
33 297 19 700 -36 998 -228 1241 -1108 2263 -2301 2672 -412 141 -903 210
-1319 185z m12 -182 c3 -29 6 -33 29 -30 60 7 86 -52 88 -200 1 -67 -23 -103
-64 -95 -21 4 -24 0 -27 -32 -3 -35 -4 -36 -43 -36 -25 0 -40 5 -41 13 -1 6
-2 21 -3 33 -1 16 -6 19 -21 14 -61 -19 -89 32 -91 165 -1 83 1 92 22 111 15
13 31 18 46 14 21 -5 23 -2 23 28 0 42 5 47 46 47 30 0 33 -3 36 -32z m328
-43 c20 -24 4 -65 -25 -65 -24 0 -24 -1 -27 -102 l-3 -103 -37 -3 -38 -3 0
105 c0 101 -1 105 -22 108 -23 3 -35 35 -24 64 8 20 159 20 176 -1z m201 -25
c27 -27 30 -35 27 -87 l-3 -58 -57 -3 c-42 -2 -58 -7 -58 -17 0 -21 19 -28 67
-26 41 1 43 0 43 -27 0 -38 -17 -52 -62 -52 -51 0 -103 23 -118 51 -15 27 -8
175 9 208 27 49 108 55 152 11z m183 4 c52 -7 62 -19 52 -60 -6 -24 -10 -26
-45 -20 l-38 6 -14 -103 -14 -102 -33 2 c-18 0 -36 4 -39 7 -7 6 16 255 24
269 5 9 45 9 107 1z m-962 -35 c12 -16 20 -44 21 -75 l2 -48 -48 -9 c-37 -7
-47 -13 -45 -26 3 -12 15 -16 53 -14 51 2 65 -7 65 -40 0 -23 -56 -47 -110
-47 -51 0 -86 32 -95 86 -4 22 -10 53 -14 69 -10 42 3 96 30 118 35 28 116 20
141 -14z m1180 -8 c13 -5 32 -18 42 -30 19 -21 19 -23 -4 -133 -13 -62 -26
-117 -30 -121 -4 -5 -34 -5 -66 -1 -78 9 -109 39 -101 96 8 56 35 90 88 108
l44 15 -42 3 c-40 3 -43 5 -43 33 0 46 42 57 112 30z m-1385 -101 c12 -52 23
-113 25 -134 3 -36 1 -40 -27 -48 -36 -10 -50 4 -59 63 -4 26 -11 39 -19 36
-7 -2 -10 -14 -8 -28 12 -64 7 -82 -24 -90 -16 -5 -33 -5 -36 -1 -4 4 -19 62
-34 130 -29 136 -26 152 26 152 26 0 29 -4 35 -40 4 -25 12 -40 21 -40 11 0
12 8 7 35 -9 51 0 67 38 63 32 -3 33 -3 55 -98z m1601 40 c26 -16 32 -26 32
-54 0 -18 -8 -44 -18 -57 -15 -18 -17 -28 -9 -49 7 -20 6 -35 -7 -62 -22 -46
-58 -60 -116 -46 -46 12 -55 25 -46 64 6 24 10 25 46 19 36 -6 40 -5 40 14 0
12 -6 21 -14 21 -21 0 -36 24 -29 48 4 16 13 22 34 22 37 0 39 27 4 36 -17 4
-25 13 -25 28 0 13 3 26 7 29 13 14 69 6 101 -13z m245 -90 c35 -39 34 -64 -4
-156 -37 -90 -66 -111 -128 -94 -81 21 -94 67 -51 179 23 59 39 85 58 96 40
22 91 12 125 -25z m-2468 -2 c-1 -23 2 -25 18 -16 11 5 23 6 27 1 8 -8 110
-239 110 -248 0 -3 -14 -12 -30 -20 -32 -16 -50 -13 -50 9 0 7 -7 21 -15 32
-14 18 -15 16 -10 -21 7 -48 -2 -63 -41 -71 -29 -5 -30 -4 -82 110 -28 64 -52
122 -52 129 0 8 10 19 23 25 17 8 18 11 5 11 -10 1 -22 10 -28 21 -8 15 -6 21
9 30 11 5 26 8 33 5 8 -3 23 4 33 15 25 28 50 22 50 -12z m2626 -49 c24 -12
52 -28 62 -37 24 -21 22 -78 -3 -99 -14 -12 -20 -30 -20 -56 0 -45 -43 -97
-80 -97 -20 0 -140 48 -140 55 0 4 58 138 89 208 12 26 28 47 35 47 7 0 32
-10 57 -21z m-2742 -181 l62 -122 -23 -18 c-32 -25 -45 -22 -63 12 -21 40 -26
38 -19 -9 5 -33 3 -41 -17 -55 -13 -9 -30 -16 -39 -16 -9 0 -38 46 -74 119
-63 126 -65 141 -15 154 15 4 25 -3 40 -26 l19 -32 0 42 c0 32 5 46 22 57 12
9 27 16 33 16 7 0 40 -55 74 -122z m2952 82 c23 -13 24 -38 3 -69 -15 -22 -15
-24 15 -53 30 -30 35 -42 32 -83 -1 -11 15 9 37 45 21 36 45 66 53 68 9 2 26
-6 39 -16 l23 -19 -68 -116 c-69 -118 -82 -130 -117 -103 -22 17 -23 35 -1 66
16 24 16 25 -3 9 -35 -30 -57 -30 -120 0 -34 16 -64 33 -67 39 -7 10 4 32 78
160 47 82 59 91 96 72z m-1240 -76 c195 -24 409 -70 409 -88 0 -6 -19 -30 -41
-54 l-41 -43 -25 23 c-34 31 -93 31 -127 -1 -54 -50 -16 -131 61 -131 21 0 48
7 60 15 22 16 45 3 26 -16 -10 -10 -656 -239 -676 -239 -8 0 -22 -9 -32 -20
-14 -16 -16 -23 -7 -32 7 -7 12 -27 12 -44 0 -36 16 -52 33 -35 8 8 8 11 -2
11 -7 0 -11 6 -9 12 3 7 -1 24 -8 37 -12 23 -11 26 18 44 18 10 169 68 337
127 169 59 313 111 322 115 11 4 18 0 22 -15 4 -17 -4 -25 -46 -47 -29 -14
-116 -59 -194 -99 -78 -41 -149 -74 -158 -74 -17 0 -19 -9 -6 -28 7 -11 9 -11
14 2 4 9 15 16 26 16 11 0 21 4 23 9 2 7 234 129 290 153 28 12 10 -18 -28
-47 -21 -16 -34 -35 -34 -49 0 -29 -41 -69 -63 -60 -13 4 -17 1 -17 -15 0 -12
4 -21 8 -21 4 0 14 -16 21 -35 12 -35 13 -36 69 -35 65 1 148 -6 159 -13 4 -3
18 -1 30 4 24 9 51 81 33 87 -22 8 -9 47 19 64 37 21 55 78 52 168 -1 36 2 70
6 76 10 14 133 77 139 71 3 -2 -11 -20 -31 -40 l-35 -35 0 -108 c0 -100 1
-107 15 -87 13 18 13 26 3 43 -10 16 -10 24 0 41 10 15 11 24 3 32 -15 15 -14
42 1 70 19 33 90 107 99 102 10 -7 -2 -88 -15 -98 -8 -6 -7 -10 2 -14 6 -2 12
-20 12 -38 0 -18 -6 -36 -12 -39 -10 -5 -10 -7 0 -12 14 -7 16 -60 2 -69 -10
-6 11 -35 24 -35 3 0 6 65 6 145 0 94 4 145 10 145 15 0 88 -38 95 -49 3 -6
84 -71 179 -145 95 -74 182 -149 193 -166 17 -27 21 -29 27 -14 8 21 18 12
-176 163 -87 68 -158 127 -158 131 0 25 264 -133 435 -260 331 -247 640 -611
819 -967 110 -219 175 -392 231 -613 27 -106 55 -250 55 -283 0 -16 -21 -17
-332 -15 l-333 3 3 35 c1 19 -1 41 -6 47 -6 10 -185 13 -797 14 -435 0 -799
-1 -809 -3 -10 -2 -21 3 -23 10 -3 7 4 12 15 12 23 0 62 44 62 69 0 9 -7 25
-15 35 -21 28 -19 36 9 36 35 0 51 27 51 84 1 28 6 61 13 73 31 56 -1 113 -63
113 -51 0 -72 -35 -56 -93 10 -35 9 -48 -4 -80 -14 -34 -14 -42 -1 -68 14 -28
14 -29 -9 -29 -57 0 -91 -75 -52 -118 20 -22 22 -32 5 -32 -21 0 -48 -33 -48
-59 0 -44 -12 -53 -66 -49 l-49 3 0 490 0 490 108 3 107 3 0 34 c0 36 10 42
45 29 24 -9 49 -64 36 -77 -27 -27 1 -107 37 -107 9 0 32 9 50 20 24 15 32 27
32 49 0 16 -7 34 -15 41 -9 8 -11 17 -6 28 21 42 42 123 37 140 -9 27 -40 53
-62 53 -16 0 -45 -5 -154 -25 -8 -1 -22 -5 -30 -9 -8 -4 -46 -5 -85 -3 -38 2
-78 4 -88 5 -16 1 -18 9 -17 49 2 26 2 104 1 175 l-1 127 -45 0 c-45 0 -45 0
-46 35 -2 52 -3 55 -15 63 -7 4 -59 5 -115 2 l-104 -5 -3 -67 -3 -67 -131 -3
c-94 -2 -133 -7 -136 -15 -3 -10 28 -13 132 -13 113 0 136 -2 136 -15 0 -12
-24 -15 -132 -17 -92 -2 -133 -7 -135 -15 -3 -9 30 -13 131 -15 178 -4 180
-21 4 -28 -92 -4 -133 -9 -136 -17 -3 -10 28 -13 132 -13 113 0 136 -2 136
-15 0 -12 -24 -15 -132 -17 -92 -2 -133 -7 -135 -15 -3 -9 30 -13 131 -15 178
-4 180 -21 4 -28 -92 -4 -133 -9 -136 -17 -3 -10 25 -13 117 -13 74 0 121 -4
121 -10 0 -13 9 -12 -119 -19 -76 -4 -116 -10 -118 -18 -3 -9 22 -13 93 -15
144 -4 134 -23 -18 -32 -68 -4 -136 -8 -153 -9 -27 -2 -30 1 -33 31 -2 17 -7
32 -13 32 -5 0 -9 -44 -9 -99 0 -56 -4 -103 -10 -106 -6 -4 -10 -92 -10 -231
l0 -224 28 0 c39 -1 62 -22 69 -64 l6 -36 73 0 c41 0 74 4 74 9 0 5 38 9 85
10 66 0 85 -3 85 -14 0 -9 -14 -15 -42 -17 -57 -4 -62 -26 -7 -30 57 -4 63
-26 8 -30 -52 -4 -66 -28 -17 -29 44 -1 79 -15 58 -23 -8 -3 -30 -7 -49 -8
-52 -4 -49 -24 4 -32 56 -9 58 -24 3 -28 -49 -4 -66 -28 -20 -28 68 0 85 -27
20 -32 -55 -4 -64 -28 -10 -28 22 0 45 -6 52 -14 10 -13 4 -15 -37 -18 -35 -2
-48 -7 -48 -18 0 -10 12 -16 39 -17 44 -3 61 -14 53 -36 -6 -17 -101 -27 -232
-24 -85 2 -90 3 -93 25 -3 18 -10 22 -42 22 -32 0 -39 -4 -42 -22 -3 -23 -4
-23 -188 -23 l-185 0 -6 605 c-6 637 -8 666 -53 735 -22 33 -23 32 -111 -90
-52 -70 -76 -95 -92 -95 -12 0 -25 -4 -28 -10 -3 -6 4 -10 17 -10 13 0 29 -5
36 -12 8 -8 15 -8 26 2 27 21 32 -17 10 -79 -20 -57 -24 -60 -74 -47 l-25 7
-3 -186 -4 -185 27 10 c79 30 167 117 212 207 14 29 27 53 29 53 2 0 4 -205 4
-455 l0 -455 -144 0 -145 0 -3 -52 -3 -51 -135 -4 c-74 -2 -188 0 -252 3 -97
5 -118 9 -118 22 0 8 -11 30 -25 48 -14 18 -25 42 -25 54 0 12 -5 31 -12 43
-20 38 1 143 32 162 8 5 8 11 0 21 -7 7 -13 30 -14 51 -2 21 -8 51 -15 66 -7
17 -8 35 -2 44 6 11 2 22 -10 34 -11 11 -19 32 -19 48 0 16 -7 45 -16 66 -8
21 -13 44 -9 53 3 8 -2 23 -11 33 -9 10 -16 29 -16 42 0 15 -6 24 -15 23 -8 0
-30 27 -49 64 -35 64 -36 72 -19 140 5 18 -1 35 -19 60 -14 19 -41 58 -61 87
-47 70 -70 76 -111 29 -23 -26 -39 -36 -61 -36 -16 0 -35 -6 -42 -12 -11 -11
-13 -7 -8 19 10 51 36 105 47 98 15 -9 25 25 13 44 -6 9 -8 31 -5 50 3 26 1
32 -9 29 -8 -3 -15 -15 -17 -27 -2 -12 -14 -26 -28 -31 -25 -10 -34 -45 -13
-52 7 -2 -20 -103 -76 -281 -87 -274 -89 -277 -120 -287 -18 -6 -42 -21 -54
-34 -13 -14 -34 -27 -47 -30 -15 -4 -32 -22 -45 -49 -12 -23 -35 -58 -50 -78
-21 -27 -29 -48 -29 -77 l0 -41 195 2 c121 1 194 -2 192 -8 -2 -5 -17 -9 -33
-10 -28 0 -29 -1 -27 -50 4 -139 5 -141 27 -151 17 -7 22 -21 29 -83 6 -51 5
-77 -3 -85 -7 -7 -79 -11 -213 -11 l-202 0 -3 52 -3 52 -77 3 -77 3 3 40 c15
178 127 547 236 775 111 232 277 488 413 636 21 23 56 63 78 89 52 63 246 240
343 313 479 360 1005 553 1592 586 106 6 357 -4 481 -20z m-1982 -33 c6 -10 8
-21 5 -23 -9 -10 21 -63 56 -98 19 -20 41 -48 49 -63 13 -24 12 -29 -4 -47
-27 -30 -49 -24 -79 20 -14 22 -31 40 -37 40 -11 0 -7 -9 23 -52 25 -36 23
-53 -9 -73 -26 -17 -27 -17 -42 3 -39 50 -131 203 -131 217 0 8 13 21 29 30
28 14 30 14 50 -13 l21 -27 -6 33 c-11 56 51 99 75 53z m3576 -47 c9 -15 22
-23 30 -20 8 3 21 -2 30 -10 19 -20 4 -44 -28 -44 -21 0 -21 0 1 -16 12 -8 22
-19 22 -24 0 -11 -114 -177 -141 -204 -15 -17 -22 -18 -44 -8 -28 13 -33 43
-10 62 29 24 15 31 -20 10 -34 -21 -35 -21 -65 -4 -16 10 -30 21 -30 25 0 3
14 26 31 50 16 24 49 72 72 106 23 34 47 65 54 67 6 3 23 -4 38 -15 l25 -21
-21 -35 -22 -35 23 13 c12 8 31 19 42 25 19 11 18 13 -11 33 -20 15 -31 31
-31 47 0 33 32 32 55 -2z m-1072 -31 c4 -2 7 -19 7 -38 0 -44 -24 -69 -59 -60
l-26 7 21 -24 c18 -19 22 -37 23 -98 2 -102 -16 -160 -52 -174 -33 -13 -42
-41 -27 -81 14 -38 -3 -55 -48 -48 -27 4 -34 11 -39 34 -3 16 -19 39 -34 50
-36 25 -37 46 -4 59 14 5 25 13 25 18 0 5 18 27 39 49 39 39 39 40 30 89 -5
27 -12 56 -14 65 -8 26 13 70 51 106 18 19 34 41 34 49 0 12 7 14 33 9 17 -4
35 -9 40 -12z m112 -42 l40 -19 -48 -21 c-27 -11 -52 -19 -56 -17 -11 7 0 76
13 76 6 0 29 -9 51 -19z m-2803 -15 c17 -23 16 -24 -12 -50 -29 -26 -30 -26
-12 -54 49 -78 49 -78 83 -58 29 17 31 17 50 0 30 -27 20 -54 -32 -83 -62 -34
-91 -24 -142 49 -79 115 -81 136 -25 190 37 36 67 38 90 6z m2429 -16 c29 -16
25 -58 -6 -66 -53 -13 -84 26 -46 58 27 21 27 21 52 8z m299 -54 c0 -3 -4 -8
-10 -11 -5 -3 -10 -1 -10 4 0 6 5 11 10 11 6 0 10 -2 10 -4z m-2910 -63 c32
-23 69 -65 70 -79 0 -7 -16 -26 -35 -43 -39 -34 -43 -46 -19 -55 10 -4 27 5
46 24 33 34 43 36 64 16 22 -22 17 -50 -13 -78 -68 -63 -115 -65 -171 -5 -62
65 -82 93 -88 126 -6 27 -1 36 34 71 44 44 73 50 112 23z m-114 -219 c49 -53
91 -100 92 -106 4 -10 -36 -48 -51 -48 -6 0 -21 10 -33 21 l-23 21 -27 -21
c-42 -33 -64 -27 -127 37 -31 32 -57 62 -57 67 0 15 33 45 50 45 10 0 34 -18
54 -40 20 -23 41 -38 47 -35 6 4 -8 26 -31 51 -22 24 -40 47 -40 51 0 9 42 53
51 53 4 0 47 -43 95 -96z m4437 56 c22 -26 22 -29 -10 -63 -30 -32 -31 -32 39
-4 22 9 31 8 47 -8 12 -10 21 -23 21 -30 0 -7 -40 -54 -89 -106 -87 -92 -89
-94 -115 -80 -33 18 -33 38 2 74 l27 29 -47 -23 -48 -23 -25 24 c-14 13 -25
26 -25 30 0 4 38 47 85 96 46 49 84 92 85 97 0 15 36 6 53 -13z m-1716 -126
c8 -22 -18 -37 -36 -20 -7 8 -10 19 -7 25 10 16 36 13 43 -5z m-2886 -100 c55
-47 99 -89 99 -93 0 -3 -9 -17 -19 -30 -19 -25 -28 -24 -70 6 l-23 17 20 -40
c20 -39 20 -39 0 -67 -11 -15 -23 -27 -27 -27 -6 0 -160 128 -205 170 -12 12
20 60 41 60 9 0 27 -10 40 -22 26 -24 30 -14 8 16 -8 11 -15 28 -15 38 0 25
22 58 39 58 7 0 58 -39 112 -86z m4779 49 l21 -26 -33 -34 c-21 -22 -29 -36
-22 -43 7 -7 18 -2 34 15 13 14 30 25 38 25 19 0 52 -29 52 -45 0 -11 -181
-176 -202 -184 -13 -5 -48 29 -48 48 0 9 16 29 35 44 19 15 35 32 35 37 0 19
-27 9 -55 -20 -35 -37 -45 -37 -76 -4 l-24 26 55 50 c135 123 152 138 160 138
5 0 18 -12 30 -27z m-4926 -228 c52 -44 95 -84 95 -90 0 -13 -35 -55 -46 -55
-5 0 -24 13 -43 30 -19 16 -38 29 -42 30 -18 1 -6 -23 27 -51 19 -17 35 -36
35 -42 0 -15 -31 -47 -46 -47 -13 0 -177 133 -203 163 -9 12 -7 20 12 43 l25
28 36 -27 c50 -38 65 -24 19 19 l-36 34 23 26 c13 13 30 23 36 22 7 -2 55 -39
108 -83z m5110 5 c43 -48 45 -62 9 -85 -26 -18 -27 -17 -48 9 -11 14 -25 26
-30 26 -6 0 -30 -18 -55 -39 l-45 -39 24 -26 c27 -29 23 -51 -14 -68 -21 -9
-28 -8 -44 6 -29 26 -54 84 -47 111 3 13 40 51 82 84 93 75 116 78 168 21z
m-2449 -84 c18 -13 17 -14 -17 -13 -29 1 -35 4 -26 14 13 16 20 16 43 -1z
m-2885 -67 c36 -66 53 -77 120 -85 69 -8 81 -21 55 -60 -13 -21 -23 -25 -46
-22 -24 4 -29 2 -23 -11 15 -37 14 -58 -4 -81 -25 -30 -38 -21 -81 54 -30 53
-30 53 -90 60 -33 4 -63 11 -67 17 -3 6 0 23 6 40 10 23 19 29 43 29 24 0 28
3 19 12 -16 16 -15 34 4 63 23 35 37 31 64 -16z m5450 -19 c55 -81 56 -86 26
-106 -25 -16 -28 -16 -46 1 -19 17 -22 16 -101 -34 -44 -28 -84 -51 -89 -51
-11 0 -40 41 -40 56 0 6 36 35 80 64 75 49 80 55 75 81 -5 20 -2 30 12 38 31
18 41 12 83 -49z m-2552 18 c-2 -18 -10 -23 -33 -23 -23 0 -31 5 -33 23 -3 19
1 22 33 22 32 0 36 -3 33 -22z m2642 -157 c16 -31 12 -45 -17 -64 l-28 -18 36
5 c29 5 39 2 58 -18 13 -14 21 -31 18 -39 -3 -8 -41 -34 -84 -58 -43 -23 -80
-45 -83 -48 -10 -12 -50 -31 -65 -31 -16 0 -35 30 -35 54 0 8 12 22 28 31 l27
16 -41 -5 c-37 -5 -44 -3 -59 21 -12 18 -15 31 -9 41 13 19 204 131 226 132
10 0 22 -9 28 -19z m-5620 -56 c28 -14 50 -30 50 -36 0 -5 -11 -30 -24 -54
-22 -38 -23 -44 -9 -49 20 -8 49 18 57 50 8 29 36 32 59 6 15 -16 14 -22 -8
-70 -19 -42 -32 -56 -62 -69 -38 -15 -38 -15 -111 23 -81 43 -112 74 -112 111
0 51 51 113 93 113 10 0 40 -11 67 -25z m3416 -46 c4 -6 1 -36 -6 -65 -10 -41
-18 -54 -32 -54 -14 0 -18 8 -18 40 0 66 34 114 56 79z m-68 -12 c14 -17 1
-36 -27 -39 -30 -4 -53 28 -31 42 21 14 46 12 58 -3z m-158 -63 c0 -8 -7 -14
-15 -14 -15 0 -21 21 -9 33 10 9 24 -2 24 -19z m-562 -1 c3 -10 -18 -13 -82
-13 -79 0 -97 5 -79 24 13 12 156 2 161 -11z m-2841 -56 c-2 -12 -7 -29 -11
-38 -5 -12 19 -27 114 -72 66 -31 120 -61 120 -66 0 -18 -22 -60 -34 -64 -7
-3 -64 20 -127 50 -101 48 -115 52 -124 38 -26 -43 -31 -46 -59 -39 -15 3 -30
13 -33 21 -3 9 14 56 38 107 59 122 55 119 91 100 23 -12 29 -21 25 -37z m962
16 c10 -21 31 -49 45 -62 28 -26 32 -53 15 -98 -9 -24 -5 -39 33 -118 24 -49
51 -98 60 -109 14 -15 58 -137 58 -160 0 -18 -22 -2 -36 27 -10 17 -19 27 -21
20 -7 -20 26 -85 46 -90 38 -10 67 -207 38 -263 -16 -30 -22 -120 -9 -120 14
0 23 -41 12 -59 -6 -11 1 -25 27 -50 30 -29 34 -39 30 -67 -4 -24 -2 -32 8
-28 17 7 58 -60 60 -100 1 -17 14 -54 28 -82 38 -74 64 -148 87 -237 11 -43
39 -115 63 -160 109 -205 158 -307 177 -372 18 -60 77 -143 120 -170 44 -28
49 -34 54 -72 3 -15 8 -38 11 -50 4 -13 3 -23 -3 -23 -14 0 -29 21 -37 52 -7
28 -76 98 -96 98 -7 0 -34 20 -60 45 -39 37 -55 45 -85 45 -21 0 -53 5 -71 12
-25 9 -36 9 -41 1 -4 -6 -20 -14 -37 -17 -35 -8 -77 -41 -94 -74 -8 -15 -10
-42 -6 -75 5 -37 2 -64 -9 -92 -14 -37 -30 -116 -58 -285 -23 -141 26 -266
120 -306 44 -18 69 -50 77 -98 11 -62 42 -121 70 -134 33 -15 52 -15 57 0 10
29 35 -6 52 -73 10 -41 26 -84 34 -97 13 -20 13 -29 -2 -82 -10 -33 -14 -65
-11 -70 3 -5 1 -19 -5 -30 -16 -30 -40 -8 -40 38 0 51 -39 151 -66 169 -17 11
-43 14 -91 12 -64 -4 -68 -3 -71 19 -2 12 -9 22 -17 22 -46 0 -82 -91 -92
-238 -3 -45 -10 -85 -15 -88 -5 -3 -32 12 -59 33 -43 33 -54 48 -75 108 -29
85 -30 134 -4 217 23 73 26 145 7 173 -8 11 -21 50 -30 87 -16 63 -16 70 2
141 10 41 21 79 24 84 7 11 -17 129 -34 169 -7 16 -23 40 -35 54 -52 59 -79
141 -54 166 24 24 32 257 16 454 -10 129 -24 197 -52 250 -19 37 -23 57 -20
116 2 39 11 94 21 121 l18 51 -42 83 c-41 82 -112 169 -138 169 -7 0 -13 7
-13 15 0 8 7 15 15 15 25 0 17 21 -13 32 -27 10 -29 15 -30 72 -1 33 -7 86
-13 118 -10 50 -9 61 6 84 27 41 24 277 -4 325 -11 19 -22 50 -26 70 -6 34 -4
37 48 77 29 23 58 42 63 42 5 0 26 18 46 39 27 29 38 51 44 87 7 47 6 49 -32
84 -22 19 -45 48 -52 63 -6 15 -19 30 -27 33 -8 4 -15 13 -15 21 0 11 7 13 30
8 35 -8 57 6 71 42 12 33 26 29 48 -14z m5013 -48 c32 -67 34 -77 21 -90 -19
-19 -52 -19 -59 0 -8 21 -14 20 -95 -20 -105 -51 -105 -51 -124 -14 -21 39
-17 43 88 90 73 32 77 36 73 61 -4 19 0 30 12 37 35 21 48 11 84 -64z m-3134
28 c3 -10 -18 -13 -82 -13 -71 0 -86 3 -86 15 0 13 14 15 82 13 54 -2 83 -7
86 -15z m-2039 -73 c5 0 13 -10 17 -22 4 -13 25 -40 48 -61 l41 -37 -20 -37
c-11 -21 -54 -63 -100 -98 -92 -70 -117 -104 -97 -135 6 -11 12 -25 12 -30 0
-6 9 -30 20 -52 22 -46 28 -148 9 -148 -13 0 -144 84 -153 98 -10 17 20 88 52
119 34 33 42 67 18 76 -12 5 -8 25 20 114 19 59 46 146 60 192 l26 83 19 -31
c10 -17 23 -31 28 -31z m2111 15 c0 -12 -16 -15 -85 -15 -69 0 -85 3 -85 15 0
12 16 15 85 15 69 0 85 -3 85 -15z m708 -21 c1 -1 -6 -4 -18 -7 -15 -4 -20 0
-20 15 0 18 2 19 18 7 9 -7 18 -14 20 -15z m-708 -39 c0 -6 -37 -11 -85 -13
-72 -2 -85 0 -85 13 0 13 13 15 85 13 48 -2 85 -7 85 -13z m3118 -40 c18 -40
15 -52 -23 -75 -19 -12 -35 -24 -35 -26 0 -3 22 -2 49 2 43 6 50 4 60 -14 27
-51 21 -55 -136 -85 -82 -15 -156 -27 -166 -27 -26 0 -77 57 -77 86 0 17 8 27
26 34 36 14 41 13 47 -11 l6 -21 32 23 c69 52 194 139 200 139 3 0 11 -11 17
-25z m-3118 -20 c0 -12 -16 -15 -85 -15 -69 0 -85 3 -85 15 0 12 16 15 85 15
69 0 85 -3 85 -15z m0 -60 c0 -12 -16 -15 -85 -15 -69 0 -85 3 -85 15 0 12 16
15 85 15 69 0 85 -3 85 -15z m-2 -62 c3 -10 -18 -13 -82 -13 -71 0 -86 3 -86
15 0 13 14 15 82 13 54 -2 83 -7 86 -15z m2 -58 c0 -6 -37 -11 -85 -13 -72 -2
-85 0 -85 13 0 13 13 15 85 13 48 -2 85 -7 85 -13z m3221 -69 c16 -44 26 -83
21 -88 -4 -4 -22 -11 -40 -14 -28 -6 -32 -4 -32 15 0 27 -2 27 -101 -9 -46
-16 -89 -30 -95 -30 -14 0 -38 55 -30 69 4 5 23 15 44 22 108 35 143 51 141
67 -3 31 1 41 19 45 36 10 45 0 73 -77z m-3221 9 c0 -12 -16 -15 -85 -15 -69
0 -85 3 -85 15 0 12 16 15 85 15 69 0 85 -3 85 -15z m0 -60 c0 -12 -16 -15
-85 -15 -78 0 -96 5 -78 23 3 4 42 7 85 7 63 0 78 -3 78 -15z m0 -60 c0 -12
-16 -15 -85 -15 -78 0 -96 5 -78 23 3 4 42 7 85 7 63 0 78 -3 78 -15z m648 -5
c4 -21 -23 -55 -36 -46 -7 4 -12 21 -12 37 0 26 3 30 22 27 13 -2 24 -10 26
-18z m-28 -110 c0 -5 -5 -10 -11 -10 -5 0 -7 5 -4 10 3 6 8 10 11 10 2 0 4 -4
4 -10z m0 -45 c0 -8 -7 -15 -15 -15 -8 0 -15 7 -15 15 0 8 7 15 15 15 8 0 15
-7 15 -15z m-55 -111 c12 -12 13 -19 4 -30 -24 -29 -59 -5 -45 31 7 19 21 19
41 -1z m-37 -151 c6 -12 5 -37 -4 -71 -8 -30 -11 -58 -8 -64 3 -5 -3 -19 -14
-31 -11 -12 -22 -31 -24 -42 -4 -26 -46 -27 -62 -2 -9 14 -7 21 12 35 25 20
62 108 62 150 0 44 21 57 38 25z m827 -143 c40 -6 96 -23 130 -40 33 -17 66
-30 73 -30 6 0 12 -6 12 -14 0 -8 9 -18 20 -21 11 -3 20 -12 20 -20 0 -8 -7
-11 -20 -8 -14 4 -20 0 -20 -10 0 -9 -10 -17 -22 -19 -13 -2 -24 -9 -24 -15
-1 -7 -2 -15 -3 -18 0 -3 -26 20 -57 50 -56 55 -65 79 -21 57 36 -19 49 -18
57 3 7 19 3 20 -68 22 -57 2 -92 9 -138 30 -95 41 -74 52 61 33z m-4445 -58
c17 -13 23 -29 22 -53 -2 -92 -142 -91 -142 1 0 61 71 91 120 52z m2304 12
c26 -10 20 -44 -8 -44 -28 0 -40 14 -32 35 6 16 16 18 40 9z m3999 -26 c35
-47 3 -108 -57 -108 -41 0 -69 29 -69 72 0 66 85 91 126 36z m-3953 -84 c0
-32 -21 -39 -57 -20 -15 8 -22 15 -15 16 6 0 12 6 12 14 0 14 36 26 53 18 4
-2 7 -14 7 -28z m1939 -169 c-1 -100 8 -259 17 -304 5 -22 6 -22 24 -6 18 16
18 16 13 -7 -4 -18 -2 -20 6 -8 8 11 13 12 22 3 30 -30 81 -144 75 -167 -3
-11 4 -30 15 -44 10 -14 19 -32 19 -41 0 -28 144 -74 325 -103 60 -10 84 -8
170 9 132 27 203 57 212 91 8 33 -13 212 -32 275 -8 26 -10 45 -5 42 6 -4 10
-15 10 -26 0 -10 5 -19 10 -19 6 0 10 -12 10 -26 0 -14 4 -23 8 -20 15 9 68
-224 53 -233 -4 -4 -11 -19 -15 -36 -9 -36 -67 -117 -100 -139 -92 -60 -93
-60 -226 -57 -182 4 -237 4 -311 1 -36 -1 -74 2 -85 7 -10 6 -36 13 -56 17
-32 6 -38 11 -38 31 0 13 -5 58 -11 100 -11 69 -14 76 -38 81 -69 14 -71 18
-71 96 0 40 4 90 9 110 8 34 5 42 -36 100 -25 35 -64 82 -86 105 l-41 43 42
38 c23 22 42 43 42 48 0 5 5 51 10 103 6 68 13 97 24 103 9 5 17 17 17 26 4
53 19 -109 18 -193z m-1909 75 l0 -41 -82 3 c-78 3 -83 4 -86 26 -7 47 2 52
88 52 l80 0 0 -40z m888 -13 c2 -10 -3 -17 -12 -17 -18 0 -29 16 -21 31 9 14
29 6 33 -14z m339 -34 c14 9 126 12 139 4 6 -3 27 -6 46 -5 19 1 43 -4 53 -9
15 -9 9 -11 -34 -11 -71 -1 -82 -14 -31 -35 36 -14 40 -18 31 -35 -9 -17 -6
-20 30 -26 50 -8 92 -42 69 -56 -12 -8 -11 -10 6 -10 19 0 74 -47 74 -64 0 -4
9 -19 20 -33 13 -17 18 -33 14 -49 -4 -15 -2 -24 6 -24 6 0 18 -6 26 -14 12
-13 11 -18 -9 -42 -18 -21 -28 -25 -43 -19 -10 4 -23 7 -29 5 -5 -2 -19 -4
-30 -5 -41 -4 -66 -17 -80 -46 -9 -16 -23 -29 -33 -29 -10 0 -24 -6 -31 -12
-10 -11 -15 -10 -24 3 -15 20 -77 52 -85 44 -3 -3 4 -8 16 -12 12 -3 22 -11
22 -18 0 -7 7 -15 15 -19 21 -8 19 -43 -2 -50 -10 -3 -36 -8 -57 -11 -22 -2
-44 -9 -50 -15 -14 -14 -129 -13 -161 2 -19 9 -25 17 -21 32 4 16 -5 28 -35
50 -39 30 -48 49 -29 61 6 3 10 0 10 -7 0 -7 9 -19 20 -26 17 -10 20 -10 20 3
0 23 52 44 121 50 85 7 97 9 111 23 10 10 7 16 -10 28 -38 26 -22 65 24 56 19
-3 24 -10 21 -23 -3 -10 2 -20 10 -23 22 -9 35 -7 28 4 -4 6 10 9 35 8 50 -2
88 26 58 43 -24 14 -23 39 2 39 11 0 20 7 20 15 0 11 -9 13 -37 9 -35 -4 -36
-3 -18 10 28 20 11 32 -19 13 -20 -14 -26 -14 -36 -2 -6 7 -28 16 -48 20 -57
9 -70 20 -54 45 7 12 8 20 2 20 -18 0 -11 25 12 39 21 13 21 14 -18 28 -69 26
-141 34 -187 22 -54 -14 -157 -66 -157 -79 0 -6 -9 -10 -20 -10 -37 0 -132
-71 -117 -86 3 -4 20 -1 38 5 44 15 60 14 53 -4 -4 -10 0 -15 15 -15 31 0 26
-15 -14 -39 -20 -11 -45 -37 -57 -56 -13 -23 -24 -33 -30 -27 -6 6 -5 18 4 31
11 18 11 23 -2 31 -22 14 -34 12 -58 -10 -29 -27 -36 -25 -16 5 27 42 6 41
-37 -1 -43 -42 -89 -116 -89 -143 0 -9 9 -27 19 -40 l19 -24 41 44 c36 39 38
44 21 47 -24 4 -25 15 -5 32 19 16 49 5 41 -15 -7 -19 1 -19 20 0 26 25 35 17
32 -27 -3 -39 -1 -43 20 -43 19 0 27 9 38 40 7 22 14 47 14 55 0 9 13 21 29
27 21 8 31 19 36 44 10 45 34 73 51 58 16 -13 34 15 34 51 0 5 7 7 15 4 8 -4
15 -1 15 5 0 6 4 11 10 11 6 0 6 -9 0 -26 -15 -38 -13 -44 15 -44 14 0 29 -8
35 -20 7 -13 21 -20 41 -20 19 0 28 4 23 11 -4 8 0 8 15 0 17 -10 21 -9 21 4
0 11 10 15 35 15 19 0 35 -5 35 -11 0 -6 -7 -8 -16 -5 -12 5 -39 -7 -73 -31
-2 -1 -4 -15 -5 -30 -1 -16 -5 -28 -11 -28 -5 -1 -24 -9 -42 -18 -18 -9 -47
-17 -66 -17 -23 0 -40 -8 -55 -25 -12 -14 -27 -25 -33 -25 -8 0 -8 -4 1 -15
17 -21 6 -31 -40 -39 -46 -7 -54 -30 -14 -40 21 -6 24 -9 13 -22 -14 -17 -11
-21 15 -26 14 -2 21 4 26 21 8 36 25 36 49 2 20 -28 21 -32 6 -54 -17 -27 -53
-46 -72 -40 -7 3 -13 18 -13 34 0 22 -5 29 -19 29 -11 0 -26 -7 -35 -15 -13
-14 -16 -13 -26 6 -11 20 -12 20 -25 2 -7 -10 -17 -15 -21 -11 -4 4 -1 14 5
22 8 10 9 21 4 31 -8 13 -11 12 -23 -10 -24 -45 -34 -34 -30 39 1 23 -2 36 -8
32 -6 -3 -8 -16 -5 -29 4 -21 4 -21 -10 -4 -14 16 -15 16 -18 -10 -3 -15 -2
-44 1 -63 4 -27 10 -35 25 -33 12 1 24 -7 31 -22 9 -19 8 -27 -10 -48 -24 -30
-111 -71 -132 -63 -17 7 -22 84 -11 189 5 57 -16 40 -30 -24 -6 -30 -12 -75
-12 -101 -1 -48 -16 -92 -38 -116 -16 -17 -17 -44 -1 -60 17 -17 26 -15 39 9
10 19 8 20 -10 14 -24 -7 -27 3 -8 29 11 15 17 16 35 7 11 -6 32 -11 47 -11
l25 0 -25 -49 c-13 -27 -35 -58 -49 -68 -25 -20 -75 -157 -62 -170 3 -4 6 -1
6 5 0 29 19 8 30 -33 11 -38 10 -50 0 -70 -28 -53 43 -199 145 -300 171 -169
361 -245 612 -245 284 0 503 99 675 304 58 69 119 168 133 216 4 14 17 48 30
75 12 28 30 88 40 134 l19 84 24 -54 c22 -47 23 -59 15 -107 -9 -50 -8 -55 18
-90 16 -20 29 -40 29 -45 0 -4 23 -36 50 -71 59 -76 86 -132 105 -224 27 -123
13 -268 -15 -160 -20 78 -32 112 -61 169 -31 62 -104 159 -120 159 -6 0 -7 -4
-4 -10 3 -5 1 -10 -4 -10 -6 0 -11 -9 -11 -19 0 -11 -5 -23 -10 -26 -6 -4 -7
-11 -4 -17 4 -6 2 -8 -4 -4 -6 3 -15 -8 -22 -28 -17 -53 -31 -60 -88 -46 -48
11 -50 11 -81 -20 -17 -17 -31 -33 -31 -35 0 -2 16 -20 35 -39 41 -43 44 -62
10 -70 -14 -4 -25 -13 -25 -20 0 -8 -16 -28 -35 -45 -19 -17 -35 -34 -35 -38
-1 -12 -38 -54 -47 -52 -4 1 -17 -2 -29 -6 -18 -5 -21 -14 -19 -51 1 -36 -2
-44 -16 -44 -9 0 -19 6 -22 13 -4 10 -7 10 -18 0 -11 -11 -10 -13 4 -13 14 0
17 -10 17 -60 0 -74 -18 -80 -22 -7 -3 48 -4 50 -12 22 -5 -16 -12 -32 -16
-35 -13 -9 -19 -80 -7 -80 8 0 7 -4 -1 -12 -10 -10 -14 -10 -21 0 -5 8 -11 -4
-18 -33 -10 -42 -9 -45 11 -45 11 0 28 -5 36 -11 12 -8 8 -9 -15 -5 -17 2 -37
1 -45 -5 -12 -7 -9 -9 10 -10 23 -1 23 -2 -5 -9 -50 -14 93 0 161 15 65 15
183 59 252 95 62 33 62 17 0 -22 -105 -67 -267 -134 -371 -153 -27 -5 -35 -10
-25 -16 7 -5 -4 -6 -26 -2 -31 5 -37 3 -31 -7 15 -24 -271 -6 -385 24 -349 90
-645 274 -987 611 -114 111 -143 146 -143 167 0 15 8 33 18 40 23 16 42 50 42
76 0 17 8 20 58 21 58 1 148 26 190 52 22 14 31 49 12 49 -5 0 -10 7 -10 16 0
8 -11 40 -25 70 -14 30 -25 61 -25 69 0 7 -5 17 -11 20 -5 4 -15 19 -21 33
-10 27 -11 26 -41 -35 -33 -67 -66 -94 -90 -74 -12 9 -16 8 -21 -5 -3 -9 -1
-22 5 -30 14 -17 5 -43 -37 -103 -20 -30 -34 -63 -34 -80 0 -20 -8 -35 -22
-45 -13 -9 -27 -32 -33 -52 -12 -44 -41 -67 -55 -44 -16 24 -12 87 5 94 8 3
15 12 15 20 0 7 7 16 15 20 22 8 18 43 -5 56 -27 14 -25 29 5 40 15 6 27 20
30 37 4 15 13 40 21 56 9 15 13 35 10 45 -7 22 4 39 29 44 15 3 19 10 17 30
-2 18 5 31 20 42 22 16 22 16 4 47 -19 32 -15 79 7 79 7 0 24 -13 39 -30 14
-16 31 -30 36 -30 15 0 72 56 72 70 0 9 -4 9 -17 -1 -14 -13 -15 -12 -6 6 6
11 16 54 22 95 25 182 87 357 150 424 11 12 21 28 21 34 0 7 5 12 10 12 6 0
10 6 10 14 0 8 16 28 35 45 19 17 35 33 35 36 0 11 78 79 130 114 70 46 150
123 150 145 0 9 8 16 20 16 18 0 25 -11 21 -33 -1 -5 8 -2 20 7 12 8 28 12 35
9 16 -6 141 15 164 28 8 4 18 3 21 -3 4 -6 11 -8 16 -5z m328 -41 c-3 -3 -11
0 -18 7 -9 10 -8 11 6 5 10 -3 15 -9 12 -12z m-517 -74 c-3 -7 -16 -12 -31
-11 -41 2 -43 3 -27 13 22 14 62 12 58 -2z m107 -28 c-3 -5 -17 -10 -31 -10
-14 0 -22 4 -19 10 3 6 17 10 31 10 14 0 22 -4 19 -10z m-165 -4 c0 -3 -4 -8
-10 -11 -5 -3 -10 -1 -10 4 0 6 5 11 10 11 6 0 10 -2 10 -4z m-5 -46 c3 -5 1
-10 -4 -10 -6 0 -11 5 -11 10 0 6 2 10 4 10 3 0 8 -4 11 -10z m239 -166 c9 -3
16 -15 16 -25 0 -14 -7 -19 -30 -19 -30 0 -40 13 -20 25 6 4 8 11 5 16 -7 10
6 12 29 3z m2636 -114 c8 -5 15 -19 15 -31 0 -20 10 -25 95 -44 l95 -21 -2
-33 c0 -18 -5 -37 -10 -42 -4 -4 -42 0 -83 11 -97 25 -117 25 -125 -1 -6 -17
-12 -19 -33 -14 -15 3 -31 10 -35 14 -7 7 18 143 30 164 6 10 35 9 53 -3z
m-6087 -21 c29 -22 51 -81 45 -119 -2 -15 -13 -27 -31 -33 -33 -11 -36 -9 -43
29 -7 39 -12 44 -41 44 -37 0 -147 -30 -154 -42 -4 -6 -3 -24 2 -40 12 -45 2
-60 -40 -56 -35 3 -36 5 -49 57 -15 62 -4 104 32 123 23 12 198 55 232 57 12
1 33 -8 47 -20z m6134 -211 c11 -12 11 -21 -2 -58 -12 -33 -12 -45 -4 -51 22
-13 39 3 45 42 8 46 14 52 49 43 22 -5 25 -12 25 -48 0 -49 -28 -100 -67 -119
-25 -13 -36 -12 -106 8 -90 26 -127 55 -127 97 0 30 25 87 44 101 17 12 127 0
143 -15z m-6118 -43 c20 -39 19 -101 0 -120 -8 -9 -64 -29 -124 -46 -104 -30
-109 -30 -122 -13 -7 10 -13 27 -13 39 0 12 -5 26 -11 32 -6 6 -9 25 -7 43 4
44 43 73 102 74 38 1 50 -4 82 -34 26 -24 35 -29 29 -15 -4 11 -10 33 -13 48
-4 27 -3 28 29 25 26 -2 37 -10 48 -33z m5956 -139 c12 -8 16 -20 13 -34 -5
-19 2 -23 66 -43 39 -12 83 -28 98 -35 25 -13 26 -17 16 -44 -5 -17 -13 -32
-18 -35 -4 -2 -47 9 -96 25 -48 17 -91 30 -95 30 -4 0 -11 -9 -14 -21 -6 -17
-12 -19 -33 -14 -43 10 -45 19 -22 92 32 96 45 109 85 79z m-5901 -44 c7 -26
5 -36 -9 -52 -18 -20 -17 -20 9 -20 21 0 30 -7 41 -32 7 -19 10 -37 5 -42 -5
-5 -37 -6 -72 -3 l-63 5 -57 -56 -57 -55 -17 36 c-17 36 -17 37 6 62 l23 25
-32 0 c-27 0 -34 5 -46 33 -20 48 -7 56 79 50 l73 -6 39 47 c44 53 64 55 78 8z
m5888 -169 c122 -54 143 -67 146 -90 2 -11 -4 -28 -13 -37 -15 -14 -19 -14
-45 -1 -44 23 -47 18 -12 -18 29 -30 32 -37 23 -61 -6 -14 -16 -29 -24 -31
-10 -5 -194 73 -234 98 -18 11 -16 31 5 57 18 22 19 22 53 5 l34 -17 -33 35
c-33 34 -33 35 -18 66 9 17 21 31 25 31 5 0 47 -17 93 -37z m-4112 -3 c0 -5
-4 -10 -10 -10 -5 0 -10 5 -10 10 0 6 5 10 10 10 6 0 10 -4 10 -10z m-1683
-49 c28 -41 31 -101 6 -123 -20 -18 -194 -98 -212 -98 -6 0 -24 28 -40 62 -33
72 -30 92 20 126 43 30 108 26 145 -9 31 -29 41 -20 14 14 -25 31 -25 43 -2
56 26 16 44 9 69 -28z m5663 -147 c0 -3 -7 -19 -16 -35 -8 -17 -14 -33 -11
-35 2 -2 25 -15 52 -28 47 -25 75 -25 75 -1 0 24 26 36 54 25 33 -12 34 -46 4
-86 -30 -39 -49 -53 -72 -54 -21 0 -152 64 -180 89 -25 23 -18 102 14 136 21
23 24 23 51 9 16 -8 29 -17 29 -20z m-5549 -90 c21 -32 38 -64 38 -71 1 -6
-23 -25 -51 -41 -29 -16 -82 -45 -116 -65 -35 -21 -68 -37 -73 -37 -8 0 -39
51 -39 64 0 3 21 17 48 31 69 38 128 75 120 75 -5 0 -37 -13 -71 -30 -80 -38
-114 -38 -144 -3 -30 34 -29 51 2 65 19 8 28 8 40 -2 13 -10 30 -5 103 33 48
25 91 45 97 43 5 -1 26 -29 46 -62z m1997 13 c20 -42 9 -43 -23 -1 -23 31 -25
35 -9 32 10 -2 25 -16 32 -31z m3529 -129 c92 -63 109 -92 76 -137 l-22 -28
25 -13 c29 -16 31 -40 6 -70 l-18 -22 -117 73 c-65 41 -130 84 -145 95 -28 23
-27 28 10 89 7 11 18 30 26 43 22 38 69 30 159 -30z m-5439 -32 c16 -27 16
-29 -1 -40 -53 -32 -54 -36 -4 -29 40 5 50 3 62 -13 25 -32 17 -48 -41 -84
-31 -19 -79 -49 -108 -67 -63 -39 -69 -40 -91 -6 -19 29 -21 25 40 68 18 12
16 12 -20 4 -57 -12 -59 -12 -78 20 -14 24 -15 32 -5 41 30 26 213 140 221
137 5 -1 16 -15 25 -31z m1862 -75 c0 -29 -11 -51 -24 -51 -7 0 -18 -16 -25
-35 -8 -23 -20 -37 -37 -41 -26 -7 -64 -67 -64 -102 0 -27 -45 -125 -64 -141
-21 -17 -20 -45 0 -77 13 -19 14 -28 5 -37 -8 -8 -14 -8 -22 0 -6 6 -18 9 -27
6 -19 -8 -42 23 -42 54 0 13 16 49 36 80 22 34 39 76 44 109 5 29 14 63 20 74
6 12 16 49 21 83 12 76 20 85 54 63 23 -15 28 -15 54 -1 17 8 33 19 36 25 11
17 35 11 35 -9z m3418 -72 c23 -17 42 -33 42 -36 0 -2 -13 -24 -30 -47 -30
-45 -30 -56 2 -56 12 0 24 12 33 34 8 19 19 37 24 40 9 6 61 -30 61 -43 0 -17
-59 -95 -81 -107 -39 -22 -60 -16 -132 33 -83 57 -103 89 -87 138 25 77 98 96
168 44z m-5153 -36 c18 -27 18 -27 -19 -59 -46 -40 -30 -56 18 -19 l34 26 25
-27 c14 -15 23 -32 21 -38 -7 -16 -200 -161 -215 -161 -7 0 -20 12 -29 28 -15
27 -14 28 25 61 49 42 40 59 -13 22 -47 -32 -57 -33 -78 0 -16 24 -16 26 2 44
36 35 189 150 200 150 7 0 20 -12 29 -27z m1941 -108 c17 -14 17 -16 3 -27 -9
-7 -23 -28 -33 -45 -19 -37 -35 -41 -60 -14 -18 20 -12 51 10 51 8 0 19 11 24
25 11 29 28 32 56 10z m3029 -11 c8 -4 22 -19 31 -35 10 -20 22 -29 39 -29 34
0 75 -47 75 -87 0 -22 -11 -45 -37 -77 -21 -24 -44 -47 -50 -50 -12 -5 -213
160 -213 176 0 8 57 77 80 95 16 14 49 16 75 7z m-4818 -69 c12 -9 31 -28 43
-45 l20 -29 -27 -26 -28 -26 -20 26 c-12 14 -27 25 -35 25 -15 -1 -90 -65 -90
-77 0 -4 10 -17 22 -30 l21 -23 -23 -25 c-32 -34 -45 -32 -80 17 -47 65 -42
86 42 162 77 71 111 82 155 51z m4731 -161 c50 -47 92 -92 92 -99 0 -7 -9 -23
-19 -36 l-20 -24 -36 35 -37 35 23 -48 23 -47 -26 -27 -27 -26 -68 60 c-37 34
-83 77 -101 96 -30 31 -32 37 -21 56 20 31 39 34 64 11 30 -28 38 -25 20 10
-8 16 -15 35 -15 41 0 16 30 49 44 49 6 0 53 -39 104 -86z m-3088 56 c0 -5 -7
-10 -15 -10 -8 0 -15 5 -15 10 0 6 7 10 15 10 8 0 15 -4 15 -10z m-1533 -22
c30 -28 29 -41 -8 -72 -37 -32 -29 -34 12 -4 28 21 32 21 57 7 45 -25 38 -67
-13 -79 -22 -6 -55 -33 -55 -46 0 -13 -22 -38 -73 -83 l-27 -24 -25 23 c-14
13 -25 27 -25 32 0 5 17 24 37 43 21 19 34 37 30 41 -4 4 -22 -7 -40 -24 -40
-38 -47 -39 -77 -7 l-23 24 99 95 c54 53 101 95 103 96 3 0 15 -10 28 -22z
m1506 -44 c11 -11 -5 -34 -24 -34 -12 0 -19 7 -19 20 0 19 28 28 43 14z m-32
-77 c-16 -16 -26 0 -10 19 9 11 15 12 17 4 2 -6 -1 -17 -7 -23z m1839 13 c0
-11 -4 -20 -10 -20 -5 0 -10 9 -10 20 0 11 5 20 10 20 6 0 10 -9 10 -20z
m1070 3 c0 -5 20 -29 43 -54 67 -73 94 -105 111 -132 16 -24 16 -26 -10 -46
-15 -12 -30 -21 -34 -21 -4 0 -21 18 -39 41 -23 28 -37 37 -44 30 -7 -7 1 -23
27 -52 l38 -41 -23 -24 c-12 -13 -27 -24 -33 -24 -19 0 -188 201 -182 216 3 8
17 20 32 26 24 11 29 9 55 -20 37 -41 48 -23 14 23 l-27 34 28 26 c27 25 44
32 44 18z m-2952 -14 c-2 -6 -8 -10 -13 -10 -5 0 -11 4 -13 10 -2 6 4 11 13
11 9 0 15 -5 13 -11z m-1258 -44 c11 -13 10 -18 -2 -33 -32 -37 -32 -44 0 -28
17 9 37 16 45 16 18 0 50 -35 46 -49 -7 -19 -153 -189 -168 -196 -9 -3 -25 5
-40 19 l-25 26 29 31 30 31 -32 -16 c-18 -9 -40 -16 -50 -16 -26 1 -55 26 -51
43 1 8 41 58 87 111 87 99 96 104 131 61z m3116 -5 c21 -12 30 -19 19 -16 -11
3 -32 8 -47 12 -16 3 -28 10 -28 15 0 14 13 11 56 -11z m1000 -216 c35 -73 64
-145 64 -160 0 -27 -51 -84 -76 -84 -7 0 -21 12 -30 26 -16 23 -16 27 -1 41
15 15 7 23 -86 100 -56 46 -104 88 -105 94 -4 10 37 48 52 49 4 0 26 -14 48
-31 l39 -31 -23 47 -23 47 28 24 c16 13 33 21 39 18 5 -3 39 -66 74 -140z
m-3892 110 c6 -10 12 -20 12 -22 1 -1 12 -5 24 -7 34 -7 46 -21 30 -40 -7 -8
-19 -15 -28 -15 -13 0 -13 -2 1 -18 10 -10 17 -22 17 -25 0 -4 -32 -46 -71
-94 -39 -48 -73 -93 -76 -100 -7 -17 -33 -16 -55 1 -22 17 -23 30 -1 63 10 14
13 24 8 22 -6 -3 -22 -11 -38 -18 -23 -12 -31 -12 -52 -1 -14 7 -25 20 -25 29
0 23 148 205 169 209 9 2 26 -6 36 -18 18 -20 18 -21 -4 -50 -23 -32 -18 -38
13 -15 11 8 29 15 40 15 17 0 14 5 -17 31 -39 32 -45 47 -25 67 15 15 29 11
42 -14z m3374 -241 c2 -16 -7 -29 -35 -47 -21 -14 -32 -26 -25 -26 7 0 21 -15
32 -32 l20 -33 -6 46 c-6 43 -4 48 19 64 15 9 31 15 37 13 6 -2 39 -55 75
-118 60 -107 63 -115 48 -132 -24 -27 -51 -22 -73 15 l-21 32 7 -44 c6 -39 4
-46 -17 -62 -13 -10 -29 -19 -35 -19 -7 0 -42 53 -78 117 l-67 118 21 17 c17
14 19 18 6 18 -8 0 -20 8 -25 18 -12 23 4 42 36 42 12 0 27 9 33 21 14 26 44
21 48 -8z m-2990 -75 c64 -34 73 -49 48 -83 -13 -19 -16 -19 -49 -3 -41 20
-36 25 -92 -84 -22 -43 -44 -78 -50 -78 -5 0 -21 9 -35 20 l-25 19 60 120 c33
67 65 121 70 121 6 0 38 -14 73 -32z m2865 -85 c9 -21 32 -74 51 -117 20 -44
36 -85 36 -91 0 -12 -57 -42 -64 -34 -2 2 -11 18 -19 34 l-16 30 -1 -30 c0
-16 -6 -37 -13 -46 -14 -18 -106 -69 -125 -69 -12 0 -122 219 -122 244 0 13
56 40 68 32 5 -3 15 -18 21 -34 12 -28 15 -29 62 -24 42 4 54 1 75 -19 23 -22
23 -19 -10 54 l-35 76 22 16 c34 24 53 18 70 -22z m-2691 8 c41 -16 68 -50 68
-84 0 -51 -63 -173 -98 -191 -56 -29 -142 22 -142 84 0 34 50 143 81 176 24
25 52 30 91 15z m228 -97 c44 -18 50 -36 24 -72 -12 -17 -19 -20 -34 -12 -34
18 -47 10 -70 -42 -24 -55 -24 -53 26 -84 13 -7 15 -17 10 -37 -9 -39 -29 -43
-83 -16 -69 35 -73 59 -32 165 44 115 72 133 159 98z m2211 -121 c40 -120 41
-127 23 -140 -10 -7 -28 -13 -41 -13 -17 0 -25 8 -33 38 -5 20 -14 44 -19 52
-18 28 -23 -15 -7 -55 18 -42 15 -52 -22 -66 -36 -14 -42 -3 -88 133 -42 126
-41 137 12 141 24 2 30 -3 40 -33 12 -36 34 -53 34 -26 0 8 -5 27 -12 42 -11
23 -10 28 7 40 10 8 29 14 41 14 20 0 27 -15 65 -127z m-2106 78 c16 -6 19
-16 17 -62 l-2 -54 26 48 c18 34 30 47 40 43 9 -3 22 -6 30 -6 29 0 25 -31
-11 -102 -109 -212 -118 -223 -179 -215 -53 7 -70 26 -56 61 7 20 16 26 32 24
22 -3 23 1 34 132 7 74 12 136 13 138 2 4 36 0 56 -7z m1859 -73 c29 -102 56
-203 56 -209 0 -10 -61 -30 -71 -23 -5 3 -14 25 -20 50 -7 25 -17 44 -25 44
-16 0 -19 -16 -4 -25 6 -4 8 -10 5 -15 -3 -5 -1 -20 5 -35 9 -24 7 -27 -23
-40 -24 -10 -35 -11 -43 -2 -12 14 -61 173 -70 228 -6 35 -5 37 25 44 39 8 49
2 57 -40 4 -21 12 -35 21 -35 9 0 12 6 9 18 -17 59 -17 70 1 81 10 6 28 11 40
11 19 0 25 -9 37 -52z m-1541 -9 c44 -12 45 -16 17 -131 -11 -45 -16 -86 -11
-91 12 -12 -10 -108 -26 -114 -7 -3 -25 -2 -39 1 -21 6 -25 12 -22 30 4 20 -1
25 -31 35 -20 6 -37 7 -39 2 -10 -30 -29 -42 -56 -35 -28 7 -28 8 -22 57 4 37
12 57 30 71 16 14 34 52 53 109 l28 89 40 -7 c22 -3 57 -10 78 -16z m1288 -9
c24 -13 44 -54 52 -102 7 -43 0 -50 -58 -58 -27 -3 -40 -10 -40 -20 0 -12 13
-15 55 -15 54 0 55 0 58 -31 3 -28 -1 -33 -29 -43 -18 -6 -51 -11 -75 -11 -58
0 -88 36 -103 123 -15 84 -14 98 5 125 27 39 93 54 135 32z m-1087 -20 c43
-16 50 -42 37 -144 -21 -160 -12 -146 -89 -139 -84 7 -107 26 -106 86 1 59 18
86 72 110 l47 22 -42 3 c-40 3 -43 5 -43 31 0 15 3 31 7 34 10 10 88 8 117 -3z
m867 -31 c16 -16 20 -30 17 -62 -3 -30 1 -46 14 -59 25 -25 23 -81 -4 -113
-18 -20 -37 -28 -88 -35 -36 -5 -68 -6 -71 -2 -8 9 -40 264 -34 270 6 6 67 17
112 20 22 2 39 -4 54 -19z m-610 -10 c32 -32 21 -221 -15 -257 -9 -9 -31 -16
-51 -15 -28 1 -35 -3 -35 -18 0 -32 -1 -34 -21 -41 -10 -4 -31 -3 -45 2 -24
10 -26 14 -20 53 3 23 8 89 11 147 9 160 3 149 86 148 56 0 76 -5 90 -19z
m224 -29 c0 -33 -2 -35 -36 -38 l-37 -3 -5 -57 c-2 -31 -3 -60 0 -64 2 -5 19
-8 38 -8 36 0 46 -13 38 -53 -5 -25 -9 -27 -60 -27 -44 0 -58 5 -78 25 -23 22
-25 32 -25 110 0 86 14 137 42 149 7 2 38 4 68 3 l55 -2 0 -35z m205 5 c0 -28
-4 -35 -20 -35 -19 0 -20 -7 -20 -104 l0 -104 -32 -5 c-51 -7 -57 5 -60 111
-3 92 -4 97 -25 100 -18 3 -23 10 -23 31 0 15 3 31 7 34 3 4 44 7 90 7 l83 0
0 -35z"/>
<path d="M3485 6783 c7 -64 11 -82 18 -72 7 11 -6 139 -15 139 -6 0 -7 -25 -3
-67z"/>
<path d="M3381 6808 c0 -18 4 -51 8 -73 8 -37 9 -35 10 27 0 37 -3 70 -9 73
-6 4 -10 -7 -9 -27z"/>
<path d="M3922 6836 c1 -10 8 -17 13 -17 15 1 12 24 -3 29 -9 3 -13 -2 -10
-12z"/>
<path d="M3130 6806 c0 -9 7 -16 16 -16 17 0 14 22 -4 28 -7 2 -12 -3 -12 -12z"/>
<path d="M4335 6677 c-4 -10 -5 -21 -1 -24 10 -10 18 4 13 24 -4 17 -4 17 -12
0z"/>
<path d="M4760 6603 c-23 -65 -25 -78 -9 -78 12 0 49 89 49 118 0 35 -20 15
-40 -40z"/>
<path d="M2354 6657 c-20 -12 -21 -13 -4 -51 l18 -39 3 52 c2 28 4 51 4 51 0
-1 -9 -6 -21 -13z"/>
<path d="M4996 6565 c-3 -8 -1 -15 4 -15 6 0 10 7 10 15 0 8 -2 15 -4 15 -2 0
-6 -7 -10 -15z"/>
<path d="M4954 6466 c-8 -22 3 -33 18 -18 9 9 9 15 0 24 -9 9 -13 7 -18 -6z"/>
<path d="M5166 6364 c-8 -22 -8 -24 8 -24 15 0 28 24 19 34 -11 10 -21 7 -27
-10z"/>
<path d="M4930 5950 c0 -11 -7 -23 -15 -26 -17 -7 -21 -40 -5 -46 6 -2 12 -35
14 -75 2 -39 7 -76 11 -82 11 -18 73 -13 84 7 9 16 10 16 16 0 11 -27 81 -25
90 2 3 11 4 24 0 30 -8 12 5 80 15 80 4 0 10 -10 13 -22 4 -12 9 -20 12 -16
10 10 -14 60 -26 53 -7 -5 -9 4 -5 28 3 20 1 39 -4 42 -6 3 -10 15 -10 26 0
16 -7 19 -40 19 -33 0 -40 -3 -40 -19 0 -30 -17 -34 -24 -6 -5 21 -12 25 -46
25 -34 0 -40 -3 -40 -20z m104 -181 l-8 -24 -6 25 c-8 30 -2 46 12 32 6 -6 7
-20 2 -33z"/>
<path d="M3700 5900 c0 -11 4 -20 8 -20 4 0 8 9 9 20 1 11 -2 20 -8 20 -5 0
-9 -9 -9 -20z"/>
<path d="M3810 5898 c0 -19 2 -20 10 -8 13 19 13 30 0 30 -5 0 -10 -10 -10
-22z"/>
<path d="M4029 5918 c-6 -21 -5 -38 2 -38 5 0 9 9 9 20 0 16 -7 28 -11 18z"/>
<path d="M4790 5900 c0 -5 5 -10 10 -10 6 0 10 5 10 10 0 6 -4 10 -10 10 -5 0
-10 -4 -10 -10z"/>
<path d="M4677 5880 c-3 -11 -1 -20 4 -20 5 0 9 9 9 20 0 11 -2 20 -4 20 -2 0
-6 -9 -9 -20z"/>
<path d="M4606 5875 c-3 -8 -1 -15 3 -15 5 0 11 7 15 15 3 8 1 15 -3 15 -5 0
-11 -7 -15 -15z"/>
<path d="M3680 5844 c0 -8 5 -12 10 -9 6 3 10 10 10 16 0 5 -4 9 -10 9 -5 0
-10 -7 -10 -16z"/>
<path d="M3725 5840 c4 -14 12 -29 17 -35 7 -7 8 -2 3 15 -4 14 -12 30 -17 35
-7 7 -8 2 -3 -15z"/>
<path d="M3786 5851 c-4 -5 -2 -12 3 -15 5 -4 12 -2 15 3 4 5 2 12 -3 15 -5 4
-12 2 -15 -3z"/>
<path d="M3833 5846 c4 -10 7 -22 7 -27 0 -5 4 -9 9 -9 12 0 2 38 -12 47 -7 4
-8 0 -4 -11z"/>
<path d="M3895 5850 c-3 -5 -1 -10 4 -10 6 0 11 5 11 10 0 6 -2 10 -4 10 -3 0
-8 -4 -11 -10z"/>
<path d="M3945 5840 c4 -14 12 -29 17 -35 7 -7 8 -2 3 15 -4 14 -12 30 -17 35
-7 7 -8 2 -3 -15z"/>
<path d="M4000 5835 c-6 -15 -8 -30 -6 -33 3 -3 10 8 16 23 6 15 8 30 6 33 -3
3 -10 -8 -16 -23z"/>
<path d="M4045 5850 c-3 -5 1 -10 10 -10 9 0 13 5 10 10 -3 6 -8 10 -10 10 -2
0 -7 -4 -10 -10z"/>
<path d="M4110 5835 c-6 -15 -8 -30 -6 -33 3 -3 10 8 16 23 6 15 8 30 6 33 -3
3 -10 -8 -16 -23z"/>
<path d="M4813 5846 c4 -10 7 -22 7 -27 0 -5 4 -9 9 -9 12 0 2 38 -12 47 -7 4
-8 0 -4 -11z"/>
<path d="M4880 5835 c-6 -15 -8 -30 -6 -33 3 -3 10 8 16 23 6 15 8 30 6 33 -3
3 -10 -8 -16 -23z"/>
<path d="M5203 5842 c-3 -9 -8 -20 -10 -24 -2 -5 1 -8 6 -8 6 0 11 6 11 14 0
8 8 16 18 18 16 3 16 4 -1 11 -12 4 -20 1 -24 -11z"/>
<path d="M3885 5820 c-3 -5 -1 -10 4 -10 6 0 11 5 11 10 0 6 -2 10 -4 10 -3 0
-8 -4 -11 -10z"/>
<path d="M4060 5820 c0 -5 5 -10 11 -10 5 0 7 5 4 10 -3 6 -8 10 -11 10 -2 0
-4 -4 -4 -10z"/>
<path d="M4510 5820 c0 -5 5 -10 11 -10 5 0 7 5 4 10 -3 6 -8 10 -11 10 -2 0
-4 -4 -4 -10z"/>
<path d="M3670 5809 c0 -5 5 -7 10 -4 6 3 10 8 10 11 0 2 -4 4 -10 4 -5 0 -10
-5 -10 -11z"/>
<path d="M3646 5765 c-3 -8 -1 -15 4 -15 6 0 10 7 10 15 0 8 -2 15 -4 15 -2 0
-6 -7 -10 -15z"/>
<path d="M3753 5765 c0 -8 4 -15 9 -15 4 0 8 7 8 15 0 8 -4 15 -8 15 -5 0 -9
-7 -9 -15z"/>
<path d="M3857 5760 c-4 -17 0 -20 26 -19 18 1 24 3 15 6 -10 2 -18 11 -18 19
0 21 -17 17 -23 -6z"/>
<path d="M3970 5765 c0 -8 5 -15 10 -15 6 0 10 7 10 15 0 8 -4 15 -10 15 -5 0
-10 -7 -10 -15z"/>
<path d="M4080 5765 c0 -8 5 -15 10 -15 6 0 10 7 10 15 0 8 -4 15 -10 15 -5 0
-10 -7 -10 -15z"/>
<path d="M4191 5764 c0 -11 3 -14 6 -6 3 7 2 16 -1 19 -3 4 -6 -2 -5 -13z"/>
<path d="M4301 5764 c0 -11 3 -14 6 -6 3 7 2 16 -1 19 -3 4 -6 -2 -5 -13z"/>
<path d="M4403 5765 c0 -8 4 -15 9 -15 4 0 8 7 8 15 0 8 -4 15 -8 15 -5 0 -9
-7 -9 -15z"/>
<path d="M4851 5764 c0 -11 3 -14 6 -6 3 7 2 16 -1 19 -3 4 -6 -2 -5 -13z"/>
<path d="M5170 5765 c0 -8 5 -15 10 -15 6 0 10 7 10 15 0 8 -4 15 -10 15 -5 0
-10 -7 -10 -15z"/>
<path d="M3605 5750 c-3 -5 1 -10 10 -10 9 0 13 5 10 10 -3 6 -8 10 -10 10 -2
0 -7 -4 -10 -10z"/>
<path d="M4549 5753 c-4 -27 5 -69 15 -75 9 -5 12 -186 11 -747 l0 -741 83 0
82 0 0 745 c0 490 3 745 10 745 6 0 10 11 10 24 0 14 5 28 11 32 8 4 6 10 -7
17 -13 7 -19 7 -22 -1 -5 -15 -172 -17 -172 -2 0 12 -19 14 -21 3z m76 -83
c-27 -12 -35 -12 -35 0 0 6 12 10 28 9 24 0 25 -1 7 -9z m100 -19 c3 -5 1 -13
-5 -16 -15 -9 -43 3 -35 15 8 13 32 13 40 1z m-86 -25 l23 -13 -23 -6 c-39
-11 -49 -8 -49 13 0 23 15 25 49 6z m88 -46 c-5 -30 -11 -32 -53 -13 -38 16
-38 16 -14 24 49 14 70 11 67 -11z m-87 -24 c35 -14 32 -20 -17 -31 -31 -6
-33 -5 -33 19 0 30 5 31 50 12z m87 -56 c4 -29 -14 -34 -55 -14 l-37 17 40 12
c45 13 48 12 52 -15z m-89 -26 c18 -8 32 -17 32 -20 0 -3 -68 -34 -76 -34 -2
0 -4 16 -4 35 0 40 4 41 48 19z m90 -63 c6 -36 -10 -43 -57 -24 l-43 17 34 17
c43 22 62 19 66 -10z m-75 -39 l37 -18 -50 -16 -50 -16 0 34 c0 39 10 42 63
16z m74 -64 c5 -37 -10 -42 -57 -22 l-41 18 33 17 c44 23 61 19 65 -13z m-81
-34 l39 -17 -30 -13 c-50 -22 -65 -18 -65 16 0 35 4 36 56 14z m80 -64 c3 -44
-7 -49 -59 -25 l-47 22 37 16 c50 20 68 17 69 -13z m-84 -36 c34 -18 28 -30
-20 -40 -31 -6 -32 -5 -32 25 0 35 8 38 52 15z m82 -49 c3 -8 2 -24 -2 -34 -7
-18 -9 -18 -44 -3 -41 18 -49 32 -19 32 11 0 23 5 26 10 9 15 32 12 39 -5z
m-91 -40 c47 -20 53 -31 19 -43 -15 -5 -35 -13 -44 -17 -15 -6 -18 -1 -18 34
0 23 2 41 4 41 2 0 20 -7 39 -15z m92 -73 c2 -30 -17 -37 -55 -21 -37 17 -37
22 -2 36 39 16 55 11 57 -15z m-81 -32 c31 -11 34 -30 7 -30 -11 0 -23 -4 -26
-10 -14 -22 -35 -10 -35 20 0 33 11 37 54 20z m83 -63 c2 -36 -7 -39 -57 -20
l-43 17 39 17 c49 22 58 19 61 -14z m-78 -35 l41 -19 -37 -12 c-21 -7 -44 -15
-50 -17 -9 -4 -13 5 -13 30 0 41 3 42 59 18z m79 -60 c4 -30 -21 -38 -59 -19
l-31 15 28 15 c38 20 58 17 62 -11z m-93 -32 c4 -6 10 -8 15 -5 5 3 11 1 15
-5 3 -5 -11 -16 -31 -25 -47 -19 -44 -20 -44 15 0 23 5 30 19 30 11 0 23 -5
26 -10z m91 -73 c1 -21 -2 -37 -5 -37 -3 0 -27 10 -53 22 l-47 22 42 17 c55
22 62 19 63 -24z m-75 -29 l46 -22 -45 -23 c-25 -13 -49 -23 -54 -23 -4 0 -8
20 -8 45 0 25 3 45 7 45 4 0 28 -10 54 -22z m75 -81 c3 -42 -3 -44 -63 -21
l-42 16 42 23 c23 13 46 22 52 21 5 -1 10 -19 11 -39z m-74 -39 c16 -5 25 -14
22 -19 -5 -8 -69 -39 -80 -39 -2 0 -4 18 -4 41 0 35 3 40 18 34 9 -4 29 -12
44 -17z m75 -59 c5 -44 -9 -52 -56 -31 -38 16 -41 19 -27 31 9 7 16 10 16 7 0
-4 10 0 22 8 29 20 41 16 45 -15z m-90 -41 c18 -7 33 -16 33 -20 0 -6 -63 -38
-76 -38 -2 0 -4 16 -4 35 0 39 1 40 47 23z m91 -72 c2 -30 -1 -36 -17 -36 -11
0 -22 4 -26 9 -3 5 -20 13 -38 17 l-32 7 50 22 c27 13 52 22 55 20 3 -2 7 -20
8 -39z m-81 -33 c24 -10 43 -20 43 -23 0 -4 -50 -30 -92 -48 -5 -2 -8 17 -8
42 0 25 3 46 7 46 4 0 27 -8 50 -17z m83 -87 c0 -23 -3 -45 -6 -49 -3 -3 -28
6 -55 21 -48 25 -62 42 -36 42 7 0 28 8 47 19 19 10 38 17 43 14 4 -2 7 -23 7
-47z m-94 -35 l24 -19 -25 -6 c-32 -8 -45 -1 -45 25 0 24 15 24 46 0z"/>
<path d="M3794 5722 c6 -10 103 -9 113 1 3 4 -22 7 -56 7 -34 0 -60 -4 -57 -8z"/>
<path d="M4125 5685 c-38 -37 -35 -95 6 -129 36 -31 73 -33 96 -7 24 28 33 17
33 -38 0 -26 5 -63 11 -80 9 -24 9 -35 0 -44 -18 -18 -13 -65 10 -88 18 -18
30 -20 67 -16 57 6 76 28 68 78 -4 23 0 47 9 65 20 39 19 63 -5 99 -11 17 -20
47 -20 69 0 30 -7 45 -34 72 -39 39 -63 42 -99 14 l-26 -20 -25 25 c-32 32
-60 32 -91 0z m76 -62 c8 -41 -10 -60 -40 -43 -21 11 -29 58 -14 74 18 17 47
0 54 -31z m144 3 c8 -13 13 -30 9 -39 -3 -9 6 -37 20 -63 28 -51 27 -77 -5
-94 -13 -8 -25 -7 -39 0 -21 11 -22 14 -25 75 -1 22 -5 64 -9 93 -7 48 -6 52
13 52 11 0 27 -11 36 -24z m30 -276 c0 -20 -51 -38 -66 -23 -7 7 -9 19 -5 28
8 21 71 17 71 -5z"/>
<path d="M1998 5259 c-30 -17 -22 -39 15 -39 41 0 49 7 36 31 -11 21 -25 23
-51 8z"/>
<path d="M1985 5200 c-3 -5 -3 -11 2 -11 4 -1 -10 -5 -32 -8 -58 -9 -55 -36 5
-36 41 0 45 2 47 27 2 29 -11 46 -22 28z"/>
<path d="M2030 5178 c0 -35 2 -38 28 -38 15 0 33 -5 40 -12 15 -15 21 -9 24
23 3 21 -2 24 -31 27 -19 2 -41 11 -48 20 -11 15 -12 12 -13 -20z"/>
<path d="M1862 5163 c5 -25 28 -28 28 -4 0 12 -6 21 -16 21 -9 0 -14 -7 -12
-17z"/>
<path d="M2150 5160 c0 -11 5 -20 10 -20 6 0 10 9 10 20 0 11 -4 20 -10 20 -5
0 -10 -9 -10 -20z"/>
<path d="M2990 4780 c0 -147 4 -230 10 -230 6 0 10 83 10 230 0 147 -4 230
-10 230 -6 0 -10 -83 -10 -230z"/>
<path d="M3060 4780 c0 -147 4 -230 10 -230 6 0 10 83 10 230 0 147 -4 230
-10 230 -6 0 -10 -83 -10 -230z"/>
<path d="M3128 5000 c-8 -25 3 -450 12 -445 13 8 13 455 1 455 -5 0 -11 -4
-13 -10z"/>
<path d="M1860 4892 c0 -4 9 -8 19 -8 11 0 17 4 15 8 -3 4 -12 8 -20 8 -8 0
-14 -4 -14 -8z"/>
<path d="M4160 4852 c-51 -17 -65 -67 -28 -102 15 -14 22 -30 20 -48 -4 -33
29 -72 61 -72 66 0 92 77 37 108 -26 14 -29 21 -24 45 8 40 -31 81 -66 69z
m25 -51 c7 -12 -12 -24 -25 -16 -11 7 -4 25 10 25 5 0 11 -4 15 -9z m51 -102
c3 -6 1 -16 -4 -21 -13 -13 -45 8 -36 23 7 12 31 11 40 -2z"/>
<path d="M2181 4722 c-1 -30 -3 -33 -23 -26 -20 6 -21 5 -10 -9 9 -10 10 -17
2 -22 -5 -3 -10 -1 -10 4 0 6 -6 11 -12 11 -20 -1 32 -40 52 -40 15 0 17 7 13
48 -6 61 -11 76 -12 34z"/>
<path d="M1978 4663 c6 -2 18 -2 25 0 6 3 1 5 -13 5 -14 0 -19 -2 -12 -5z"/>
<path d="M2117 4614 c-15 -13 -24 -24 -20 -24 11 1 57 40 52 44 -2 3 -17 -7
-32 -20z"/>
<path d="M2056 4565 c-11 -8 -16 -15 -10 -15 5 0 18 7 28 15 11 8 16 15 10 15
-5 0 -18 -7 -28 -15z"/>
<path d="M2990 4510 c0 -5 5 -10 10 -10 6 0 10 5 10 10 0 6 -4 10 -10 10 -5 0
-10 -4 -10 -10z"/>
<path d="M3060 4510 c0 -5 5 -10 10 -10 6 0 10 5 10 10 0 6 -4 10 -10 10 -5 0
-10 -4 -10 -10z"/>
<path d="M2201 4474 c0 -11 3 -14 6 -6 3 7 2 16 -1 19 -3 4 -6 -2 -5 -13z"/>
<path d="M2995 4451 c-3 -5 -1 -12 5 -16 5 -3 10 1 10 9 0 18 -6 21 -15 7z"/>
<path d="M3060 4444 c0 -8 5 -12 10 -9 6 3 10 10 10 16 0 5 -4 9 -10 9 -5 0
-10 -7 -10 -16z"/>
<path d="M2195 4390 c-16 -7 -17 -9 -3 -9 9 -1 19 -7 21 -13 3 -7 6 -3 6 10 1
12 0 22 -1 21 -2 0 -12 -4 -23 -9z"/>
<path d="M2990 4380 c0 -5 5 -10 10 -10 6 0 10 5 10 10 0 6 -4 10 -10 10 -5 0
-10 -4 -10 -10z"/>
<path d="M3060 4380 c0 -5 5 -10 10 -10 6 0 10 5 10 10 0 6 -4 10 -10 10 -5 0
-10 -4 -10 -10z"/>
<path d="M1025 4310 c-9 -28 3 -96 20 -110 32 -27 80 38 69 95 -6 33 -9 35
-44 35 -30 0 -40 -5 -45 -20z"/>
<path d="M1258 4323 c-9 -19 -9 -203 0 -203 5 0 12 9 15 20 5 20 47 29 47 10
0 -5 3 -10 8 -10 4 0 8 24 10 53 1 28 3 70 5 92 l2 40 -42 3 c-22 2 -43 -1
-45 -5z"/>
<path d="M2990 4320 c0 -5 5 -10 10 -10 6 0 10 5 10 10 0 6 -4 10 -10 10 -5 0
-10 -4 -10 -10z"/>
<path d="M3060 4320 c0 -5 5 -10 10 -10 6 0 10 5 10 10 0 6 -4 10 -10 10 -5 0
-10 -4 -10 -10z"/>
<path d="M1210 4246 c-5 -13 -6 -33 -4 -43 4 -14 -3 -25 -20 -37 -38 -24 -34
-46 9 -46 l35 0 0 75 c0 79 -5 91 -20 51z"/>
<path d="M2990 4250 c0 -5 5 -10 10 -10 6 0 10 5 10 10 0 6 -4 10 -10 10 -5 0
-10 -4 -10 -10z"/>
<path d="M3060 4250 c0 -5 5 -10 10 -10 6 0 10 5 10 10 0 6 -4 10 -10 10 -5 0
-10 -4 -10 -10z"/>
<path d="M2050 4226 c0 -2 7 -9 15 -16 9 -7 15 -8 15 -2 0 5 -7 12 -15 16 -8
3 -15 4 -15 2z"/>
<path d="M2095 4190 c3 -5 8 -10 11 -10 2 0 4 5 4 10 0 6 -5 10 -11 10 -5 0
-7 -4 -4 -10z"/>
<path d="M2990 4190 c0 -5 5 -10 10 -10 6 0 10 5 10 10 0 6 -4 10 -10 10 -5 0
-10 -4 -10 -10z"/>
<path d="M3060 4190 c0 -5 5 -10 10 -10 6 0 10 5 10 10 0 6 -4 10 -10 10 -5 0
-10 -4 -10 -10z"/>
<path d="M2995 4131 c-3 -5 -1 -12 5 -16 5 -3 10 1 10 9 0 18 -6 21 -15 7z"/>
<path d="M3060 4124 c0 -8 5 -12 10 -9 6 4 8 11 5 16 -9 14 -15 11 -15 -7z"/>
<path d="M1577 6104 c-3 -3 -3 -12 0 -20 4 -11 9 -12 19 -3 8 6 11 15 8 20 -6
10 -18 12 -27 3z"/>
<path d="M835 5180 c-4 -6 -3 -16 3 -22 6 -6 12 -6 17 2 4 6 3 16 -3 22 -6 6
-12 6 -17 -2z"/>
<path d="M1588 4719 c-19 -11 -24 -54 -8 -64 13 -8 52 33 48 52 -4 21 -18 25
-40 12z"/>
<path d="M1951 3874 c0 -11 3 -14 6 -6 3 7 2 16 -1 19 -3 4 -6 -2 -5 -13z"/>
<path d="M2108 2903 c6 -2 18 -2 25 0 6 3 1 5 -13 5 -14 0 -19 -2 -12 -5z"/>
<path d="M4208 3543 c7 -3 16 -2 19 1 4 3 -2 6 -13 5 -11 0 -14 -3 -6 -6z"/>
<path d="M4355 3490 c-16 -18 -16 -20 -2 -20 10 0 17 5 17 11 0 6 9 8 22 3 20
-6 21 -5 9 10 -17 21 -24 20 -46 -4z"/>
<path d="M3700 3390 c-6 -11 -8 -20 -6 -20 3 0 10 9 16 20 6 11 8 20 6 20 -3
0 -10 -9 -16 -20z"/>
<path d="M4423 3383 c-18 -7 -16 -23 2 -23 8 0 15 7 15 15 0 8 -1 15 -2 14 -2
0 -9 -3 -15 -6z"/>
<path d="M3955 3300 c-3 -5 -2 -10 4 -10 5 0 13 5 16 10 3 6 2 10 -4 10 -5 0
-13 -4 -16 -10z"/>
<path d="M3371 2740 c0 -14 4 -32 9 -40 8 -12 10 -12 9 5 0 11 -4 29 -9 40 -8
18 -9 18 -9 -5z"/>
<path d="M3400 2674 c0 -9 -5 -12 -12 -8 -7 4 -8 3 -4 -4 5 -9 13 -9 27 -2 23
13 25 30 4 30 -8 0 -15 -7 -15 -16z"/>
<path d="M4726 1764 c-9 -24 -7 -27 9 -10 17 17 19 26 6 26 -5 0 -12 -7 -15
-16z"/>
<path d="M6682 2888 c6 -18 25 -20 31 -3 5 10 0 15 -14 15 -12 0 -19 -5 -17
-12z"/>
<path d="M485 2830 c-8 -13 15 -13 35 0 12 8 11 10 -7 10 -12 0 -25 -4 -28
-10z"/>
<path d="M653 2413 c-14 -5 -18 -23 -5 -23 5 0 17 7 28 15 14 11 15 14 4 14
-8 0 -21 -3 -27 -6z"/>
<path d="M6350 2111 c0 -9 96 -71 111 -71 22 0 5 19 -42 49 -51 32 -69 38 -69
22z"/>
<path d="M6212 1918 c6 -18 28 -21 28 -4 0 9 -7 16 -16 16 -9 0 -14 -5 -12
-12z"/>
<path d="M6075 1730 c3 -5 10 -10 16 -10 5 0 9 5 9 10 0 6 -7 10 -16 10 -8 0
-12 -4 -9 -10z"/>
<path d="M6152 1668 c3 -7 13 -15 22 -16 12 -3 17 1 14 10 -3 7 -13 15 -22 16
-12 3 -17 -1 -14 -10z"/>
<path d="M4934 754 c3 -9 6 -18 6 -20 0 -2 5 -4 10 -4 6 0 10 9 10 20 0 12 -7
20 -16 20 -11 0 -14 -5 -10 -16z"/>
<path d="M2305 829 c-19 -43 -24 -64 -17 -71 8 -8 20 8 41 56 35 76 35 76 18
76 -8 0 -26 -27 -42 -61z"/>
<path d="M2936 601 c-19 -58 -19 -61 -7 -61 9 0 35 100 27 107 -2 2 -11 -19
-20 -46z"/>
<path d="M4247 663 c-12 -11 -8 -23 8 -23 8 0 15 7 15 15 0 16 -12 20 -23 8z"/>
<path d="M3155 537 c-4 -10 -5 -21 -1 -24 10 -10 18 4 13 24 -4 17 -4 17 -12
0z"/>
<path d="M4010 610 c0 -5 5 -10 10 -10 6 0 10 5 10 10 0 6 -4 10 -10 10 -5 0
-10 -4 -10 -10z"/>
<path d="M4030 505 c0 -15 4 -24 10 -20 6 3 10 12 10 20 0 8 -4 17 -10 20 -6
4 -10 -5 -10 -20z"/>
<path d="M3397 603 c-4 -3 -7 -36 -7 -72 0 -80 15 -70 24 17 6 56 1 74 -17 55z"/>
</g>
</svg>
